# xmcd CD database file
#
# Track frame offsets:
#	183
#	38815
#	63640
#	83783
#	122690
#	145940
#
# Disc length: 2518 seconds
#
# Revision: 1
# Processed by: cddbd v1.4PL0 Copyright (c) Steve Scherf et al.
# Submitted via: CDex 1.50Beta5
#
DISCID=4f09d406
DTITLE=Ahmad Jamal - Live In Concert
DYEAR=1900
DGENRE=Jazz
TTITLE0=Appreciation
TTITLE1=My Funny Valentine
TTITLE2=Chega De Saudade
TTITLE3=The Night Has A Thousand Eyes
TTITLE4=African Flower
TTITLE5=One
EXTD=
EXTT0=
EXTT1=
EXTT2=
EXTT3=
EXTT4=
EXTT5=
PLAYORDER=
